<svg width="84" height="84" viewBox="0 0 84 84" fill="none" xmlns="http://www.w3.org/2000/svg">
<path d="M31.5 17.5C30.5717 17.5 29.6815 17.8688 29.0251 18.5252C28.3687 19.1815 28 20.0718 28 21C28 21.9283 28.3687 22.8185 29.0251 23.4749C29.6815 24.1313 30.5717 24.5 31.5 24.5C32.4283 24.5 33.3185 24.1313 33.9749 23.4749C34.6313 22.8185 35 21.9283 35 21C35 20.0718 34.6313 19.1815 33.9749 18.5252C33.3185 17.8688 32.4283 17.5 31.5 17.5ZM21.595 17.5C22.3181 15.4507 23.6591 13.676 25.4331 12.4208C27.2071 11.1655 29.3268 10.4915 31.5 10.4915C33.6732 10.4915 35.7929 11.1655 37.5669 12.4208C39.3409 13.676 40.6819 15.4507 41.405 17.5H66.5C67.4283 17.5 68.3185 17.8688 68.9749 18.5252C69.6313 19.1815 70 20.0718 70 21C70 21.9283 69.6313 22.8185 68.9749 23.4749C68.3185 24.1313 67.4283 24.5 66.5 24.5H41.405C40.6819 26.5494 39.3409 28.324 37.5669 29.5793C35.7929 30.8345 33.6732 31.5086 31.5 31.5086C29.3268 31.5086 27.2071 30.8345 25.4331 29.5793C23.6591 28.324 22.3181 26.5494 21.595 24.5H17.5C16.5717 24.5 15.6815 24.1313 15.0251 23.4749C14.3687 22.8185 14 21.9283 14 21C14 20.0718 14.3687 19.1815 15.0251 18.5252C15.6815 17.8688 16.5717 17.5 17.5 17.5H21.595ZM52.5 38.5C51.5717 38.5 50.6815 38.8688 50.0251 39.5252C49.3688 40.1815 49 41.0718 49 42C49 42.9283 49.3688 43.8185 50.0251 44.4749C50.6815 45.1313 51.5717 45.5 52.5 45.5C53.4283 45.5 54.3185 45.1313 54.9749 44.4749C55.6312 43.8185 56 42.9283 56 42C56 41.0718 55.6312 40.1815 54.9749 39.5252C54.3185 38.8688 53.4283 38.5 52.5 38.5ZM42.595 38.5C43.3181 36.4507 44.6591 34.676 46.4331 33.4208C48.2071 32.1655 50.3268 31.4915 52.5 31.4915C54.6732 31.4915 56.7929 32.1655 58.5669 33.4208C60.3409 34.676 61.6819 36.4507 62.405 38.5H66.5C67.4283 38.5 68.3185 38.8688 68.9749 39.5252C69.6313 40.1815 70 41.0718 70 42C70 42.9283 69.6313 43.8185 68.9749 44.4749C68.3185 45.1313 67.4283 45.5 66.5 45.5H62.405C61.6819 47.5494 60.3409 49.324 58.5669 50.5793C56.7929 51.8345 54.6732 52.5086 52.5 52.5086C50.3268 52.5086 48.2071 51.8345 46.4331 50.5793C44.6591 49.324 43.3181 47.5494 42.595 45.5H17.5C16.5717 45.5 15.6815 45.1313 15.0251 44.4749C14.3687 43.8185 14 42.9283 14 42C14 41.0718 14.3687 40.1815 15.0251 39.5252C15.6815 38.8688 16.5717 38.5 17.5 38.5H42.595ZM31.5 59.5C30.5717 59.5 29.6815 59.8688 29.0251 60.5252C28.3687 61.1815 28 62.0718 28 63C28 63.9283 28.3687 64.8185 29.0251 65.4749C29.6815 66.1313 30.5717 66.5 31.5 66.5C32.4283 66.5 33.3185 66.1313 33.9749 65.4749C34.6313 64.8185 35 63.9283 35 63C35 62.0718 34.6313 61.1815 33.9749 60.5252C33.3185 59.8688 32.4283 59.5 31.5 59.5ZM21.595 59.5C22.3181 57.4507 23.6591 55.676 25.4331 54.4208C27.2071 53.1655 29.3268 52.4915 31.5 52.4915C33.6732 52.4915 35.7929 53.1655 37.5669 54.4208C39.3409 55.676 40.6819 57.4507 41.405 59.5H66.5C67.4283 59.5 68.3185 59.8688 68.9749 60.5252C69.6313 61.1815 70 62.0718 70 63C70 63.9283 69.6313 64.8185 68.9749 65.4749C68.3185 66.1313 67.4283 66.5 66.5 66.5H41.405C40.6819 68.5494 39.3409 70.324 37.5669 71.5793C35.7929 72.8345 33.6732 73.5086 31.5 73.5086C29.3268 73.5086 27.2071 72.8345 25.4331 71.5793C23.6591 70.324 22.3181 68.5494 21.595 66.5H17.5C16.5717 66.5 15.6815 66.1313 15.0251 65.4749C14.3687 64.8185 14 63.9283 14 63C14 62.0718 14.3687 61.1815 15.0251 60.5252C15.6815 59.8688 16.5717 59.5 17.5 59.5H21.595Z" fill="white"/>
</svg>
