<svg width="28" height="28" viewBox="0 0 28 28" fill="none" xmlns="http://www.w3.org/2000/svg">
<path fill-rule="evenodd" clip-rule="evenodd" d="M0 12.2973C0 5.50571 5.50571 0 12.2973 0C19.0889 0 24.5947 5.50571 24.5947 12.2973C24.5947 19.0889 19.0889 24.5947 12.2973 24.5947C5.50571 24.5947 0 19.0889 0 12.2973ZM12.2973 1.99416C6.60705 1.99416 1.99416 6.60705 1.99416 12.2973C1.99416 17.9876 6.60705 22.6005 12.2973 22.6005C17.9876 22.6005 22.6005 17.9876 22.6005 12.2973C22.6005 6.60705 17.9876 1.99416 12.2973 1.99416Z" fill="#D70303"/>
<path d="M24.6974 27.5431C23.952 27.4514 23.2466 27.0348 22.8191 26.3222L21.3669 23.9019C20.9306 23.1746 21.0452 22.2436 21.6449 21.6439C22.0351 21.2537 22.5653 21.0689 23.0884 21.1074C23.3697 21.128 23.6489 21.2133 23.9032 21.3659L26.3236 22.818C27.7484 23.673 27.9905 25.6392 26.8155 26.8142C26.3073 27.3224 25.6508 27.5656 25.0003 27.5624C24.899 27.5619 24.798 27.5555 24.6974 27.5431Z" fill="#D70303"/>
</svg>
